<?xml version="1.0" encoding="utf-8"?><svg xml:space="preserve" viewBox="0 0 100 100" y="0px" x="0px" xmlns:xlink="http://www.w3.org/1999/xlink" xmlns="http://www.w3.org/2000/svg" id="圖層_1" version="1.1" width="200px" height="200px" style="width:100%;height:100%;background-size:initial;background-repeat-y:initial;background-repeat-x:initial;background-position-y:initial;background-position-x:initial;background-origin:initial;background-image:initial;background-clip:initial;background-attachment:initial;animation-play-state:paused" ><g class="ldl-scale" style="transform-origin:50% 50%;transform:rotate(0deg) scale(0.8, 0.8);animation-play-state:paused" ><path d="M83,25H50v-3c0-3.866028-3.134033-7-7-7H17c-3.865967,0-7,3.133972-7,7v3v53c0,3.865967,3.134033,7,7,7h66 c3.865967,0,7-3.134033,7-7V32C90,28.133972,86.865967,25,83,25z" stroke-miterlimit="10" stroke-linejoin="round" stroke-linecap="round" stroke-width="3.5" stroke="#333435" fill="#F5E169" style="stroke:rgb(51, 52, 53);fill:rgb(245, 225, 105);animation-play-state:paused" ></path>
<path d="M83,85H17c-3.865993,0-7-3.13401-7-7V42c0-3.865993,3.134007-7,7-7h66c3.86599,0,7,3.134007,7,7v36C90,81.86599,86.86599,85,83,85z" stroke-miterlimit="10" stroke-linejoin="round" stroke-linecap="round" stroke-width="3.5" stroke="#333435" fill="#F47E5F" style="stroke:rgb(51, 52, 53);fill:rgb(244, 126, 95);animation-play-state:paused" ></path>
<path d="M83.739006,85H16.26099C12.803141,85,10,82.196861,10,78.739006V51.26099C10,47.803143,12.803141,45,16.26099,45h67.478012 C87.196861,45,90,47.803143,90,51.26099v27.478016C90,82.196861,87.196861,85,83.739006,85z" stroke-miterlimit="10" stroke-linejoin="round" stroke-linecap="round" stroke-width="3.5" stroke="#333435" fill="#F7B26A" style="stroke:rgb(51, 52, 53);fill:rgb(247, 178, 106);animation-play-state:paused" ></path>
<metadata xmlns:d="https://loading.io/stock/" style="animation-play-state:paused" ><d:name style="animation-play-state:paused" >folder</d:name>


<d:tags style="animation-play-state:paused" >folder,file,business,document,papers,report,archives,record</d:tags>


<d:license style="animation-play-state:paused" >by</d:license>


<d:slug style="animation-play-state:paused" >dwaqeh</d:slug></metadata></g><!-- generated by https://loading.io/ --></svg>
